<?xml version="1.0" encoding="UTF-8" standalone="no"?>
<!DOCTYPE svg PUBLIC "-//W3C//DTD SVG 1.1//EN"
 "http://www.w3.org/Graphics/SVG/1.1/DTD/svg11.dtd">
<!-- Generated by graphviz version 2.40.1 (20161225.0304)
 -->
<!-- Title: G Pages: 1 -->
<svg width="585pt" height="362pt"
 viewBox="0.00 0.00 585.23 362.00" xmlns="http://www.w3.org/2000/svg" xmlns:xlink="http://www.w3.org/1999/xlink">
<g id="graph0" class="graph" transform="scale(1 1) rotate(0) translate(4 358)">
<title>G</title>
<polygon fill="#ffffff" stroke="transparent" points="-4,4 -4,-358 581.2348,-358 581.2348,4 -4,4"/>
<g id="clust1" class="cluster">
<title>cluster_Global</title>
<path fill="none" stroke="#c0c0c0" d="M329.6069,-8C329.6069,-8 557.2348,-8 557.2348,-8 563.2348,-8 569.2348,-14 569.2348,-20 569.2348,-20 569.2348,-334 569.2348,-334 569.2348,-340 563.2348,-346 557.2348,-346 557.2348,-346 329.6069,-346 329.6069,-346 323.6069,-346 317.6069,-340 317.6069,-334 317.6069,-334 317.6069,-20 317.6069,-20 317.6069,-14 323.6069,-8 329.6069,-8"/>
<text text-anchor="middle" x="443.4208" y="-333.2" font-family="Times,serif" font-size="11.00" fill="#c0c0c0">Global</text>
</g>
<g id="clust2" class="cluster">
<title>cluster_\AustinHeap</title>
<path fill="none" stroke="#c0c0c0" d="M337.6069,-16C337.6069,-16 549.2348,-16 549.2348,-16 555.2348,-16 561.2348,-22 561.2348,-28 561.2348,-28 561.2348,-307 561.2348,-307 561.2348,-313 555.2348,-319 549.2348,-319 549.2348,-319 337.6069,-319 337.6069,-319 331.6069,-319 325.6069,-313 325.6069,-307 325.6069,-307 325.6069,-28 325.6069,-28 325.6069,-22 331.6069,-16 337.6069,-16"/>
<text text-anchor="middle" x="443.4208" y="-306.2" font-family="Times,serif" font-size="11.00" fill="#c0c0c0">AustinHeap</text>
</g>
<g id="clust3" class="cluster">
<title>cluster_\AustinHeap\Security</title>
<path fill="none" stroke="#c0c0c0" d="M345.6069,-24C345.6069,-24 541.2348,-24 541.2348,-24 547.2348,-24 553.2348,-30 553.2348,-36 553.2348,-36 553.2348,-280 553.2348,-280 553.2348,-286 547.2348,-292 541.2348,-292 541.2348,-292 345.6069,-292 345.6069,-292 339.6069,-292 333.6069,-286 333.6069,-280 333.6069,-280 333.6069,-36 333.6069,-36 333.6069,-30 339.6069,-24 345.6069,-24"/>
<text text-anchor="middle" x="443.4208" y="-279.2" font-family="Times,serif" font-size="11.00" fill="#c0c0c0">Security</text>
</g>
<g id="clust4" class="cluster">
<title>cluster_\AustinHeap\Security\Txt</title>
<path fill="none" stroke="#c0c0c0" d="M353.6069,-32C353.6069,-32 533.2348,-32 533.2348,-32 539.2348,-32 545.2348,-38 545.2348,-44 545.2348,-44 545.2348,-253 545.2348,-253 545.2348,-259 539.2348,-265 533.2348,-265 533.2348,-265 353.6069,-265 353.6069,-265 347.6069,-265 341.6069,-259 341.6069,-253 341.6069,-253 341.6069,-44 341.6069,-44 341.6069,-38 347.6069,-32 353.6069,-32"/>
<text text-anchor="middle" x="443.4208" y="-252.2" font-family="Times,serif" font-size="11.00" fill="#c0c0c0">Txt</text>
</g>
<!-- \\AustinHeap\\Security\\Txt\\SecurityTxtServiceProvider -->
<g id="node1" class="node">
<title>\\AustinHeap\\Security\\Txt\\SecurityTxtServiceProvider</title>
<polygon fill="none" stroke="#000000" points="537.0491,-238 349.7925,-238 349.7925,-202 537.0491,-202 537.0491,-238"/>
<text text-anchor="middle" x="443.4208" y="-216.7" font-family="Courier,monospace" font-size="11.00" fill="#000000">SecurityTxtServiceProvider</text>
</g>
<!-- \\Illuminate\\Support\\ServiceProvider -->
<g id="node5" class="node">
<title>\\Illuminate\\Support\\ServiceProvider</title>
<ellipse fill="none" stroke="#000000" cx="138.8034" cy="-220" rx="138.6071" ry="18"/>
<text text-anchor="middle" x="138.8034" y="-215.8" font-family="Times,serif" font-size="14.00" fill="#c0c0c0">\Illuminate\Support\ServiceProvider</text>
</g>
<!-- \\AustinHeap\\Security\\Txt\\SecurityTxtServiceProvider&#45;&gt;\\Illuminate\\Support\\ServiceProvider -->
<g id="edge1" class="edge">
<title>\\AustinHeap\\Security\\Txt\\SecurityTxtServiceProvider&#45;&gt;\\Illuminate\\Support\\ServiceProvider</title>
<path fill="none" stroke="#000000" d="M349.54,-220C330.0102,-220 308.9697,-220 288.0077,-220"/>
<polygon fill="none" stroke="#000000" points="287.7306,-216.5001 277.7305,-220 287.7305,-223.5001 287.7306,-216.5001"/>
</g>
<!-- \\AustinHeap\\Security\\Txt\\SecurityTxtController -->
<g id="node2" class="node">
<title>\\AustinHeap\\Security\\Txt\\SecurityTxtController</title>
<polygon fill="none" stroke="#000000" points="520.5439,-184 366.2978,-184 366.2978,-148 520.5439,-148 520.5439,-184"/>
<text text-anchor="middle" x="443.4208" y="-162.7" font-family="Courier,monospace" font-size="11.00" fill="#000000">SecurityTxtController</text>
</g>
<!-- \\Illuminate\\Routing\\Controller -->
<g id="node6" class="node">
<title>\\Illuminate\\Routing\\Controller</title>
<ellipse fill="none" stroke="#000000" cx="138.8034" cy="-166" rx="118.8452" ry="18"/>
<text text-anchor="middle" x="138.8034" y="-161.8" font-family="Times,serif" font-size="14.00" fill="#c0c0c0">\Illuminate\Routing\Controller</text>
</g>
<!-- \\AustinHeap\\Security\\Txt\\SecurityTxtController&#45;&gt;\\Illuminate\\Routing\\Controller -->
<g id="edge2" class="edge">
<title>\\AustinHeap\\Security\\Txt\\SecurityTxtController&#45;&gt;\\Illuminate\\Routing\\Controller</title>
<path fill="none" stroke="#000000" d="M366.1592,-166C336.2883,-166 301.2832,-166 267.8153,-166"/>
<polygon fill="none" stroke="#000000" points="267.4854,-162.5001 257.4854,-166 267.4853,-169.5001 267.4854,-162.5001"/>
</g>
<!-- \\AustinHeap\\Security\\Txt\\SecurityTxtFacade -->
<g id="node3" class="node">
<title>\\AustinHeap\\Security\\Txt\\SecurityTxtFacade</title>
<polygon fill="none" stroke="#000000" points="507.6393,-130 379.2024,-130 379.2024,-94 507.6393,-94 507.6393,-130"/>
<text text-anchor="middle" x="443.4208" y="-108.7" font-family="Courier,monospace" font-size="11.00" fill="#000000">SecurityTxtFacade</text>
</g>
<!-- \\Illuminate\\Support\\Facades\\Facade -->
<g id="node7" class="node">
<title>\\Illuminate\\Support\\Facades\\Facade</title>
<ellipse fill="none" stroke="#000000" cx="138.8034" cy="-112" rx="137.6208" ry="18"/>
<text text-anchor="middle" x="138.8034" y="-107.8" font-family="Times,serif" font-size="14.00" fill="#c0c0c0">\Illuminate\Support\Facades\Facade</text>
</g>
<!-- \\AustinHeap\\Security\\Txt\\SecurityTxtFacade&#45;&gt;\\Illuminate\\Support\\Facades\\Facade -->
<g id="edge3" class="edge">
<title>\\AustinHeap\\Security\\Txt\\SecurityTxtFacade&#45;&gt;\\Illuminate\\Support\\Facades\\Facade</title>
<path fill="none" stroke="#000000" d="M379.1915,-112C352.0621,-112 319.2522,-112 286.7105,-112"/>
<polygon fill="none" stroke="#000000" points="286.6266,-108.5001 276.6265,-112 286.6265,-115.5001 286.6266,-108.5001"/>
</g>
<!-- \\AustinHeap\\Security\\Txt\\SecurityTxtHelper -->
<g id="node4" class="node">
<title>\\AustinHeap\\Security\\Txt\\SecurityTxtHelper</title>
<polygon fill="none" stroke="#000000" points="507.6393,-76 379.2024,-76 379.2024,-40 507.6393,-40 507.6393,-76"/>
<text text-anchor="middle" x="443.4208" y="-54.7" font-family="Courier,monospace" font-size="11.00" fill="#000000">SecurityTxtHelper</text>
</g>
</g>
</svg>
